<mxfile host="app.diagrams.net" modified="2023-08-02T10:21:18.574Z" agent="Mozilla/5.0 (X11; Linux x86_64) AppleWebKit/537.36 (KHTML, like Gecko) Chrome/114.0.0.0 Safari/537.36" version="21.6.6" etag="kiBGwTlhth-D8B3O1-bI" type="github">
  <diagram name="Page-1" id="-kkIMWhP1wFm5d0qQMh-">
    <mxGraphModel>
      <root>
        <mxCell id="0" />
        <mxCell id="1" parent="0" />
      </root>
    </mxGraphModel>
  </diagram>
</mxfile>
